<?xml version="1.0" encoding="UTF-8" standalone="no"?>
<svg
   xmlns:dc="http://purl.org/dc/elements/1.1/"
   xmlns:cc="http://creativecommons.org/ns#"
   xmlns:rdf="http://www.w3.org/1999/02/22-rdf-syntax-ns#"
   xmlns:svg="http://www.w3.org/2000/svg"
   xmlns="http://www.w3.org/2000/svg"
   version="1.1"
   id="svg2"
   viewBox="0 0 430.51049 252.52697"
   height="100%"
   width="100%">
  <defs
     id="defs4" />
  <metadata
     id="metadata7">
    <rdf:RDF>
      <cc:Work
         rdf:about="">
        <dc:format>image/svg+xml</dc:format>
        <dc:type
           rdf:resource="http://purl.org/dc/dcmitype/StillImage" />
        <dc:title></dc:title>
      </cc:Work>
    </rdf:RDF>
  </metadata>
  <g
     transform="translate(-213.31619,-257.52729)"
     id="layer1">
    <path
       d="m 415.35113,257.52729 -3.32032,8.23047 c -1.82653,4.52694 -9.9692,21.28047 -18.09375,37.23047 -8.12455,15.95 -15.92054,32.23409 -17.32422,36.1875 -4.32645,12.18527 -5.91713,23.24762 -5.36914,37.3125 0.77145,19.80055 4.66958,31.17086 19.69727,57.44336 8.30648,14.52198 13.48037,25.60369 15.72461,33.67578 0.89937,3.23485 1.99043,5.88086 2.42383,5.88086 0.4334,0 2.19879,-2.04831 3.92187,-4.55273 8.23236,-11.96533 18.10418,-36.59708 22.08789,-55.10742 3.01581,-14.01299 3.68209,-41.50279 1.40039,-57.83985 -3.15561,-22.59432 -3.14038,-21.72367 -0.41211,-21.33789 4.66104,0.65906 16.28113,23.44091 20.86719,40.91211 2.772,10.56031 3.76711,30.39118 2.09766,41.80859 -0.64947,4.44179 -2.2605,11.78422 -3.57813,16.31641 -1.31764,4.53218 -2.18582,8.44894 -1.92969,8.70508 1.16179,1.16178 9.39234,-8.56729 17.6836,-20.9043 15.16353,-22.56264 21.05509,-37.75174 21.14258,-54.5 0.0576,-11.02773 -1.44553,-17.56967 -6.46094,-28.11133 -6.43124,-13.51752 -13.38994,-21.55568 -33.93555,-39.19726 -20.53386,-17.63149 -27.23559,-25.00057 -34.0332,-37.42188 z m 228.27929,81.08594 c -0.54916,-0.0394 -2.32616,0.56353 -6.25,1.92578 -10.07288,3.49703 -24.06196,6.85896 -43.68359,10.5 -29.63461,5.49906 -44.21258,10.84479 -61.98242,22.72852 -21.49708,14.37635 -38.28185,36.92312 -49.15235,66.02539 -5.56185,14.89006 -7.88073,19.61317 -13.05078,26.58398 l -4.73828,6.39063 7.34961,-0.72266 c 9.67094,-0.95084 27.12915,-5.52774 38.35156,-10.05273 22.82001,-9.20126 45.61535,-24.48765 67.72266,-45.41406 6.16847,-5.83897 9.46852,-8.25281 11.46875,-8.39258 4.55001,-0.31794 4.21198,3.71547 -1.24414,14.85742 -13.16791,26.89021 -35.20737,47.81748 -63.25781,60.06445 l -6.75586,2.94922 c 0.85269,0.12697 1.96978,0.267 3.36523,0.41016 l 7.20117,0.006 c 6.325,0.005 15.55,-0.47237 20.5,-1.0625 17.45681,-2.08116 33.16028,-6.96285 45.31446,-14.08789 3.12685,-1.83304 9.55565,-7.15899 14.2871,-11.83399 7.21564,-7.12956 9.35338,-10.03167 13.25977,-18 6.88489,-14.04396 8.48781,-21.71886 10.19336,-48.8457 0.8073,-12.84034 2.17272,-26.76215 3.03516,-30.9375 1.64217,-7.95025 5.66857,-19.61645 7.55273,-21.88672 0.62597,-0.75425 0.9408,-1.17439 0.51367,-1.20508 z m -430.13867,4.17383 c -0.088,-0.01 -0.14403,-0.006 -0.16211,0.0117 -0.14461,0.14461 0.89327,3.39672 2.30664,7.22656 4.19224,11.35985 8.23043,25.94235 11.89258,42.95508 7.04626,32.73379 14.90114,48.87556 32.42969,66.63867 14.38315,14.57562 27.98591,22.25685 55.90039,31.56641 18.22464,6.07797 24.81264,9.08397 33.11523,15.11133 3.025,2.19603 5.61696,3.88384 5.75977,3.75 0.14281,-0.13384 -0.649,-4.70153 -1.75977,-10.15039 -2.62113,-12.85794 -7.13685,-26.55573 -12.65039,-38.375 -9.07786,-19.46008 -27.56579,-43.38094 -45.23828,-58.53321 -5.85197,-5.01744 -8.08458,-7.56645 -7.88672,-9 0.24558,-1.77931 0.93747,-1.97171 6.27539,-1.7539 13.76513,0.56168 26.31135,7.05583 43.6836,22.61523 11.91557,10.67214 18.25427,18.91892 25.34765,32.9707 l 5.35352,10.60157 0.11523,-0.86915 -0.008,-10.23242 c -0.0303,-41.89345 -13.41166,-70.04473 -40.5918,-85.39258 -15.10636,-8.53011 -25.18256,-10.4264 -60.90039,-11.46679 -29.77296,-0.86723 -36.50883,-1.7049 -47.57617,-5.91016 -2.55284,-0.97 -4.78994,-1.69443 -5.40625,-1.76367 z"
       id="bl-leaf-svg" />
  </g>
</svg>
