<svg xmlns="http://www.w3.org/2000/svg"
  width="auto"
  height="auto"
  viewBox="0 0 531.7 204.7" id="svg2">
  <defs id="defs4"/>
  <metadata id="metadata7"/>
  <g id="layer1">
    <g id="g4158">
      <g id="g4209">
        <path d="M202.4 0C151 0 159.9 86.9 192.8 95.7 192.7 124.6 192 153.5 191.2 182.4L187.2 187.9C182.5 194.3 181.1 196.8 181.1 198.8 181.1 200.6 184 204 185.9 204.4 188.7 204.9 208.9 204 210.5 203.3 214.4 201.5 214.4 197.2 210.5 191.9 209.5 190.5 208 188 207.2 186.5L205.7 183.6C206.4 154 207 125.6 207.7 96.1 243.5 86.5 249.2 0 202.4 0zM492.5 0.5C447.4 6.6 456.8 87.4 488.5 95.9 488.4 124.8 487.7 153.7 486.9 182.5L482.9 188.1C478.2 194.5 476.8 197 476.8 198.9 476.8 200.8 479.7 204.2 481.6 204.6 484.4 205.1 504.6 204.2 506.2 203.5 510.1 201.7 510.1 197.4 506.2 192.1 505.2 190.7 503.7 188.2 502.9 186.6L501.4 183.8C502.1 154.1 502.7 125.8 503.4 96.2 537.7 87 544.3 7.3 503.7 0.6 501.9 0.3 507.9 69.2 497 69.2 486.5 69.2 494.3 0.3 492.5 0.5zM46.2 57.6C44.4 57.7 42.1 58 39 58.5 34.1 59.4 29.9 59.7 26.2 59.5 19.7 59.2 16.8 59.9 15.4 61.8 13 65.3 15.1 69.5 22.4 75.6 24.9 77.7 27.1 79.9 27.3 80.5 27.5 81.1 26.6 88.2 25.3 96.3 24 104.4 20.8 125 18.3 142.1 15.8 159.2 13.4 173.9 13 174.8 12.7 175.7 10.1 178.5 7.4 181 1.8 186.1 0 188.6 0 191.5 0 196 4.5 198.6 10.8 197.9 12.6 197.7 16.9 198 20.4 198.6 28.9 200 31.5 199.9 33.5 198.3 36.6 195.9 36.4 194.2 32.2 186 28.5 178.7 28.5 178.4 28.6 173.6 28.6 168.7 29.2 164.5 34.6 127.7 37.6 107.4 37.7 106.8 38.5 106.8 38.8 106.8 42 114.7 45.7 124.3 63.5 170.6 70.7 188.2 72.7 190 74.8 192 76.4 192.2 79.1 190.8 81.4 189.6 83 187 85.7 180 86.9 177 94.1 161.1 101.8 144.7 109.6 128.3 116.9 112.7 118.2 109.9 119.5 107.1 120.8 104.8 121.2 104.8 121.7 104.8 123.1 113.1 125.1 127.2 126.8 139.5 129.1 156 130.3 163.9L132.4 178.1 130.5 183.5C129.5 186.4 127.8 190.5 126.7 192.6 124.4 197.2 124.3 199.8 126.5 201.9 128.6 204.1 131.1 204 138.3 201.6 141.5 200.5 146.5 199.2 149.4 198.7 156 197.5 157.8 196.8 159.1 194.9 161.6 191.4 159.8 188.1 152 181.9 150 180.3 147.8 177.9 147.1 176.4 146.4 175 145.1 169 144.2 163 142.6 152.4 136.2 104 134.6 90.4L133.8 83.5 137.1 78.6C138.9 76 141.5 72.5 142.8 70.9 145.8 67.3 146.2 63.8 143.8 61.3 142.7 60.3 141.7 60.1 138.1 60.1 135.7 60.1 129.3 60.2 123.9 60.3 118.5 60.4 113.3 60.7 112.3 61.1 110.2 61.9 108.9 64.8 109.5 67.4 109.7 68.4 111.6 71.6 113.8 74.4 115.9 77.2 117.7 79.8 117.7 80.1 117.7 80.4 110.1 96.8 100.8 116.5 91.4 136.1 82.5 155.1 80.9 158.6 79.2 162.1 77.6 165 77.3 165 76.9 165 76.3 164.2 75.9 163.2 75.6 162.2 70.8 150.1 65.5 136.2 60.1 122.4 52.9 103.9 49.4 95.1 46 86.4 43.1 78.6 43.1 77.9 43.1 77.2 44.7 74.9 46.6 72.9 51.8 67.4 53 65.6 53 63.4 53 62.2 52.5 60.7 52 59.9 50.9 58.3 49.3 57.6 46.2 57.6zM363.8 63C358.2 63 357.3 65.1 358.4 75.3 359 81.2 359 83.9 358.3 88.8 357.4 95.5 357.8 97.2 360.5 98.3 363.3 99.3 365.6 98.2 371.4 92.7 375.4 88.9 377.8 87.1 379.6 86.6 381 86.2 393.4 85.7 407.2 85.5 429.3 85.1 432.2 85.1 432.2 86 432.2 86.6 427.1 93.7 420.9 102 397.3 133.2 376.9 158.1 362.1 174 354 182.6 352.7 186.9 356.7 190.9 358.3 192.6 358.6 192.6 363.1 192.1 365.7 191.7 384.2 191.5 404.4 191.5L441 191.5 447.2 195.2C453.7 199.2 456.8 199.9 459.3 198.1 460.4 197.3 460.7 196 461 190 461.2 186.1 461.9 180.4 462.6 177.3 464 170.7 463.4 168.1 460.2 167 457.7 166.1 456.3 166.7 449.6 171.1 439.5 177.8 440 177.7 408.3 177.7 383.7 177.7 380.8 177.6 380.9 176.7 380.9 176.1 390.1 164.2 401.3 150.2 419.5 127.3 431 112.2 448.7 88.1 453.6 81.3 454.4 80 454.4 77.6 454.4 75.6 453.9 74.3 452.7 72.9 450.6 70.4 448.2 69.8 444.5 71.1 442.1 72 436.6 72.1 408.8 72.1L375.9 72.1 371 67.6C366.9 63.6 365.9 63 363.8 63zM246.2 63C244.7 63 243.4 63.5 242.5 64.3 241.2 65.6 241.2 66.1 241.6 76.3 241.9 83 241.8 88.2 241.3 90.6 240.5 95.2 241.2 97.3 244 98.2 246.8 99.2 248.7 98.2 254.7 92.5 258.8 88.5 260.6 87.2 262.9 86.7 267 85.6 314.8 84.8 315.4 85.7 315.8 86.5 301.9 105.4 285.4 126.4 273.9 141.1 256.2 162.2 246.9 172.4 242.7 177 238.9 181.5 238.6 182.4 237.5 185.4 237.9 188.3 239.7 190.5 241.4 192.5 241.6 192.5 245.1 192.1 247.1 191.9 265.5 191.6 286 191.4L323.3 191.1 329.8 195C335 198.1 336.9 199 339.1 199 343.4 199 344.1 197.7 344.6 188 344.9 183.4 345.4 178.7 345.8 177.4 346.9 173.8 346.7 169.9 345.3 168.2 343.2 165.6 340.1 166.2 333.7 170.6 330.6 172.6 326.3 175.1 324.1 176L320 177.7 292.3 177.9C274.9 178 264.4 177.9 264 177.5 263.5 177.1 270.3 168.1 283.2 151.8 308.5 120 332.3 88.5 336.6 81.2 338.6 77.8 338.1 74.9 335 72.2 332.4 69.9 332.1 69.8 327.8 71.2 325.2 72 319 72.1 291.8 72.1L259 72.1 255.8 68.8C254.1 67 251.8 65 250.7 64.3 249.3 63.4 247.7 63 246.2 63z" id="path4160" fill=""/>
      </g>
    </g>
  </g>
</svg>
